<?xml version="1.0" encoding="utf-8"?>
<!-- Generator: Adobe Illustrator 23.0.3, SVG Export Plug-In . SVG Version: 6.00 Build 0)  -->
<svg version="1.1" id="Layer_1" xmlns="http://www.w3.org/2000/svg" xmlns:xlink="http://www.w3.org/1999/xlink" x="0px" y="0px"
	 viewBox="0 0 24 24" style="enable-background:new 0 0 24 24;" xml:space="preserve">
<style type="text/css">
	.st0{fill:url(#SVGID_1_);}
	.st1{fill:url(#SVGID_2_);}
	.st2{fill:url(#SVGID_3_);}
	.st3{fill:url(#SVGID_4_);}
	.st4{fill:url(#SVGID_5_);}
	.st5{fill:url(#SVGID_6_);}
	.st6{fill:url(#SVGID_7_);}
	.st7{fill:url(#SVGID_8_);}
	.st8{fill:url(#SVGID_9_);}
	.st9{fill:url(#SVGID_10_);}
	.st10{fill:url(#SVGID_11_);}
	.st11{fill:url(#SVGID_12_);}
	.st12{fill:url(#SVGID_13_);}
	.st13{fill:url(#SVGID_14_);}
	.st14{fill:url(#SVGID_15_);}
	.st15{fill:url(#SVGID_16_);}
	.st16{fill:url(#SVGID_17_);}
	.st17{fill:url(#SVGID_18_);}
	.st18{fill:url(#SVGID_19_);}
	.st19{fill:url(#SVGID_20_);}
	.st20{fill:url(#SVGID_21_);}
	.st21{fill:url(#SVGID_22_);}
	.st22{fill:url(#SVGID_23_);}
	.st23{fill:url(#SVGID_24_);}
	.st24{fill:url(#SVGID_25_);}
	.st25{fill:url(#SVGID_26_);}
	.st26{fill:url(#SVGID_27_);}
	.st27{fill:url(#SVGID_28_);}
	.st28{fill:url(#SVGID_29_);}
	.st29{fill:url(#SVGID_30_);}
	.st30{fill:url(#SVGID_31_);}
	.st31{fill:url(#SVGID_32_);}
</style>
<g>
	<g>
		<linearGradient id="SVGID_1_" gradientUnits="userSpaceOnUse" x1="1" y1="12.7521" x2="23" y2="12.7521">
			<stop  offset="0" style="stop-color:#1245C6"/>
			<stop  offset="1" style="stop-color:#9909B7"/>
		</linearGradient>
		<path class="st0" d="M22.9,17.8c0-0.1-0.1-0.1-0.1-0.1c-0.4-0.7-1.1-1.5-2.2-2.5l0,0l0,0l0,0h0c-0.5-0.5-0.8-0.8-0.9-0.9
			c-0.2-0.3-0.3-0.6-0.2-0.9c0.1-0.2,0.4-0.7,1-1.5c0.3-0.4,0.6-0.7,0.7-1C22.6,9,23.1,7.9,23,7.4l-0.1-0.1c0-0.1-0.2-0.1-0.4-0.2
			c-0.2-0.1-0.4-0.1-0.7,0l-3.3,0c-0.1,0-0.1,0-0.2,0c-0.1,0-0.1,0-0.1,0l-0.1,0l0,0c0,0-0.1,0.1-0.1,0.1c0,0.1-0.1,0.1-0.1,0.2
			c-0.4,0.9-0.8,1.8-1.2,2.6c-0.3,0.5-0.5,0.9-0.8,1.2c-0.2,0.3-0.4,0.6-0.6,0.8c-0.2,0.2-0.3,0.3-0.4,0.4c-0.1,0.1-0.2,0.1-0.3,0.1
			c-0.1,0-0.1,0-0.2,0c-0.1-0.1-0.2-0.2-0.3-0.3c-0.1-0.1-0.1-0.3-0.1-0.4c0-0.2,0-0.3,0-0.5c0-0.1,0-0.3,0-0.5c0-0.2,0-0.4,0-0.5
			c0-0.3,0-0.6,0-0.9c0-0.3,0-0.6,0-0.8c0-0.2,0-0.4,0-0.6c0-0.2,0-0.4,0-0.5c0-0.1-0.1-0.2-0.1-0.4c-0.1-0.1-0.1-0.2-0.2-0.3
			c-0.1-0.1-0.2-0.1-0.4-0.2c-0.4-0.1-0.9-0.1-1.5-0.1c-1.4,0-2.3,0.1-2.7,0.3C8.7,6.8,8.5,7,8.4,7.1C8.3,7.3,8.3,7.4,8.4,7.4
			c0.5,0.1,0.8,0.2,1,0.5L9.4,8c0.1,0.1,0.1,0.3,0.2,0.5c0.1,0.3,0.1,0.5,0.1,0.8c0,0.6,0,1,0,1.4c0,0.4-0.1,0.7-0.1,0.9
			c0,0.2-0.1,0.4-0.2,0.5c-0.1,0.1-0.1,0.2-0.1,0.3c0,0,0,0-0.1,0.1c-0.1,0-0.2,0.1-0.3,0.1c-0.1,0-0.2-0.1-0.4-0.2
			C8.4,12.4,8.2,12.2,8,12c-0.2-0.2-0.3-0.4-0.6-0.8c-0.2-0.3-0.4-0.7-0.6-1.2L6.6,9.7C6.5,9.5,6.4,9.2,6.2,8.8C6,8.4,5.8,8,5.7,7.6
			C5.6,7.4,5.5,7.3,5.4,7.2l-0.1,0c0,0-0.1-0.1-0.2-0.1C5.1,7.1,5,7,4.9,7l-3.1,0c-0.3,0-0.5,0.1-0.7,0.2l0,0.1c0,0,0,0.1,0,0.2
			c0,0.1,0,0.2,0.1,0.3c0.5,1.1,1,2.1,1.5,3.1s1,1.8,1.4,2.4c0.4,0.6,0.8,1.2,1.2,1.7c0.4,0.5,0.7,0.9,0.8,1
			c0.1,0.2,0.2,0.3,0.3,0.3l0.3,0.3c0.2,0.2,0.5,0.4,0.8,0.7c0.4,0.3,0.7,0.5,1.2,0.8c0.4,0.2,0.9,0.5,1.5,0.6
			c0.6,0.2,1.1,0.2,1.7,0.2h1.3c0.3,0,0.5-0.1,0.6-0.3l0-0.1c0,0,0.1-0.1,0.1-0.2c0-0.1,0-0.2,0-0.3c0-0.3,0-0.6,0.1-0.9
			c0.1-0.3,0.1-0.5,0.2-0.6c0.1-0.1,0.2-0.2,0.2-0.3c0.1-0.1,0.2-0.1,0.2-0.2c0,0,0.1,0,0.1,0c0.2-0.1,0.4,0,0.6,0.2
			c0.2,0.2,0.5,0.4,0.7,0.7c0.2,0.3,0.5,0.6,0.8,0.9c0.3,0.3,0.6,0.6,0.8,0.7l0.2,0.1c0.2,0.1,0.4,0.2,0.6,0.3
			c0.2,0.1,0.5,0.1,0.6,0.1l2.9,0c0.3,0,0.5,0,0.7-0.1c0.2-0.1,0.3-0.2,0.3-0.3c0-0.1,0-0.2,0-0.4C22.9,18,22.9,17.9,22.9,17.8z"/>
	</g>
</g>
</svg>
